<svg width="88" height="40" viewBox="0 0 88 40" fill="none" xmlns="http://www.w3.org/2000/svg">
<path d="M11.2891 39.176C8.85706 39.176 6.85706 38.6 5.28906 37.448C3.75306 36.296 2.61706 34.808 1.88106 32.984C1.17706 31.16 0.825063 29.272 0.825063 27.32C0.825063 24.792 1.20906 22.264 1.97706 19.736C2.74506 17.176 3.80106 14.744 5.14506 12.44C6.52106 10.136 8.07306 8.088 9.80106 6.296C11.5291 4.504 13.3691 3.096 15.3211 2.072C17.3051 1.016 19.2731 0.487998 21.2251 0.487998C22.6331 0.487998 23.8171 0.823998 24.7771 1.496C25.7371 2.136 26.2171 3.256 26.2171 4.856C26.2171 5.816 26.0411 6.888 25.6891 8.072C25.3691 9.256 24.9211 10.408 24.3451 11.528C23.8011 12.616 23.1771 13.512 22.4731 14.216C21.7691 14.92 21.0491 15.272 20.3131 15.272C19.9931 15.272 19.6571 15.16 19.3051 14.936C18.9531 14.712 18.6331 14.328 18.3451 13.784C18.8251 13.24 19.3691 12.584 19.9771 11.816C20.5851 11.016 21.1611 10.184 21.7051 9.32C22.2491 8.424 22.6971 7.56 23.0491 6.728C23.4011 5.864 23.5771 5.112 23.5771 4.472C23.5771 3.896 23.4171 3.448 23.0971 3.128C22.7771 2.776 22.2171 2.6 21.4171 2.6C20.0091 2.6 18.5531 3.128 17.0491 4.184C15.5771 5.24 14.1531 6.664 12.7771 8.456C11.4011 10.216 10.1531 12.2 9.03306 14.408C7.94506 16.584 7.08106 18.84 6.44106 21.176C5.80106 23.48 5.48106 25.672 5.48106 27.752C5.48106 29.288 5.70506 30.76 6.15306 32.168C6.63306 33.544 7.38506 34.664 8.40906 35.528C9.43306 36.424 10.7771 36.872 12.4411 36.872C14.1691 36.872 15.8811 36.392 17.5771 35.432C19.3051 34.472 20.8731 33.208 22.2811 31.64C23.7211 30.072 24.8731 28.392 25.7371 26.6L26.9851 27.416C25.8651 29.56 24.5211 31.528 22.9531 33.32C21.3851 35.08 19.6091 36.488 17.6251 37.544C15.6731 38.632 13.5611 39.176 11.2891 39.176ZM35.5508 39.176C34.4308 39.176 33.3588 39.016 32.3348 38.696C31.3428 38.408 30.4788 37.768 29.7428 36.776C29.8388 36.008 30.0628 34.888 30.4148 33.416C30.7988 31.944 31.2628 30.28 31.8068 28.424C32.3508 26.536 32.9268 24.6 33.5348 22.616C34.1428 20.632 34.7348 18.744 35.3108 16.952C35.9188 15.128 36.4468 13.544 36.8948 12.2C37.3748 10.824 37.7268 9.832 37.9508 9.224C38.0468 8.968 38.2068 8.584 38.4308 8.072C38.6548 7.56 38.9428 7.032 39.2948 6.488C39.6468 5.944 40.0468 5.496 40.4948 5.144C40.9748 4.76 41.4868 4.568 42.0308 4.568C42.5748 4.568 43.1828 4.792 43.8548 5.24C42.8628 7.48 41.8548 9.976 40.8308 12.728C39.8388 15.448 38.8788 18.264 37.9508 21.176C37.0548 24.056 36.2228 26.872 35.4548 29.624C34.7188 32.344 34.1108 34.84 33.6308 37.112C33.8868 37.208 34.2388 37.272 34.6868 37.304C35.1668 37.368 35.6148 37.4 36.0308 37.4C38.1108 37.4 40.0948 36.888 41.9828 35.864C43.8708 34.872 45.5988 33.544 47.1668 31.88C48.7668 30.184 50.1588 28.296 51.3428 26.216C52.5268 24.104 53.4388 21.944 54.0788 19.736C54.7188 17.528 55.0388 15.416 55.0388 13.4C55.0388 10.808 54.5908 8.712 53.6948 7.112C52.8308 5.48 51.6308 4.296 50.0948 3.56C48.5588 2.792 46.7988 2.408 44.8148 2.408C42.7348 2.408 40.8628 2.792 39.1988 3.56C37.5348 4.296 36.2228 5.32 35.2628 6.632C34.3348 7.912 33.8708 9.384 33.8708 11.048C33.8708 11.4 33.9028 11.784 33.9668 12.2C34.0308 12.584 34.1428 12.968 34.3028 13.352C32.9268 13.352 31.9348 13.064 31.3268 12.488C30.7508 11.88 30.4628 11.144 30.4628 10.28C30.4628 9.16 30.8628 8.024 31.6628 6.872C32.4948 5.72 33.6308 4.664 35.0708 3.704C36.5428 2.712 38.2388 1.928 40.1588 1.352C42.0788 0.743999 44.1588 0.439999 46.3988 0.439999C49.5348 0.439999 52.0468 1.048 53.9348 2.264C55.8228 3.448 57.1828 5.064 58.0148 7.112C58.8788 9.128 59.3108 11.384 59.3108 13.88C59.3108 16.632 58.8628 19.272 57.9668 21.8C57.1028 24.296 55.8868 26.6 54.3188 28.712C52.7828 30.824 50.9908 32.664 48.9428 34.232C46.9268 35.8 44.7668 37.016 42.4628 37.88C40.1908 38.744 37.8868 39.176 35.5508 39.176ZM71.3359 39.176C68.9039 39.176 66.9039 38.6 65.3359 37.448C63.7999 36.296 62.6639 34.808 61.9279 32.984C61.2239 31.16 60.8719 29.272 60.8719 27.32C60.8719 24.792 61.2559 22.264 62.0239 19.736C62.7919 17.176 63.8479 14.744 65.1919 12.44C66.5679 10.136 68.1199 8.088 69.8479 6.296C71.5759 4.504 73.4159 3.096 75.3679 2.072C77.3519 1.016 79.3199 0.487998 81.2719 0.487998C82.6799 0.487998 83.8639 0.823998 84.8239 1.496C85.7839 2.136 86.2639 3.256 86.2639 4.856C86.2639 5.816 86.0879 6.888 85.7359 8.072C85.4159 9.256 84.9679 10.408 84.3919 11.528C83.8479 12.616 83.2239 13.512 82.5199 14.216C81.8159 14.92 81.0959 15.272 80.3599 15.272C80.0399 15.272 79.7039 15.16 79.3519 14.936C78.9999 14.712 78.6799 14.328 78.3919 13.784C78.8719 13.24 79.4159 12.584 80.0239 11.816C80.6319 11.016 81.2079 10.184 81.7519 9.32C82.2959 8.424 82.7439 7.56 83.0959 6.728C83.4479 5.864 83.6239 5.112 83.6239 4.472C83.6239 3.896 83.4639 3.448 83.1439 3.128C82.8239 2.776 82.2639 2.6 81.4639 2.6C80.0559 2.6 78.5999 3.128 77.0959 4.184C75.6239 5.24 74.1999 6.664 72.8239 8.456C71.4479 10.216 70.1999 12.2 69.0799 14.408C67.9919 16.584 67.1279 18.84 66.4879 21.176C65.8479 23.48 65.5279 25.672 65.5279 27.752C65.5279 29.288 65.7519 30.76 66.1999 32.168C66.6799 33.544 67.4319 34.664 68.4559 35.528C69.4799 36.424 70.8239 36.872 72.4879 36.872C74.2159 36.872 75.9279 36.392 77.6239 35.432C79.3519 34.472 80.9199 33.208 82.3279 31.64C83.7679 30.072 84.9199 28.392 85.7839 26.6L87.0319 27.416C85.9119 29.56 84.5679 31.528 82.9999 33.32C81.4319 35.08 79.6559 36.488 77.6719 37.544C75.7199 38.632 73.6079 39.176 71.3359 39.176Z" fill="#F3F3F3"/>
</svg>
